<svg id="Layer_1" data-name="Layer 1" xmlns="http://www.w3.org/2000/svg" viewBox="0 0 17 20"><defs><style>.cls-1{fill:#5922c6;}</style></defs><path class="cls-1" d="M.70057,16.99427H2.30922a.57482.57482,0,0,1,.57482.57482v1.60654a.57479.57479,0,0,1-.57479.57479H.70057a.57477.57477,0,0,1-.57477-.57477V17.569A.57477.57477,0,0,1,.70057,16.99427Z"/><path class="cls-1" d="M11.60322.28727C10.2503.22123,8.86811.2554,7.53132.28842c-.859.02111-1.74767.04223-2.61052.03781L4.89748.326,4.87425.32873A5.36354,5.36354,0,0,0,.12667,5.388l-.00078,3.9a.46928.46928,0,0,0,.46928.46937h1.7672a.46927.46927,0,0,0,.46928-.46945L2.83029,5.61927A2.671,2.671,0,0,1,5.13848,3.02515l6.71726.00557a2.62985,2.62985,0,0,1,2.24714,2.287c-.05739,1.04674-.02293,2.14071.01037,3.199a33.30327,33.30327,0,0,1-.00816,3.428A2.66137,2.66137,0,0,1,11.48449,14.29h-.00125l-6.5434-.00144a.46928.46928,0,0,0-.46937.46928v1.76592a.46926.46926,0,0,0,.46918.46927l6.72183.00126.02222-.00127a5.477,5.477,0,0,0,5.16043-5.2549h0l-.00058-.015c-.037-.96573-.01554-1.96986.00519-2.941.02284-1.07228.04655-2.18122-.0071-3.25694A5.37052,5.37052,0,0,0,11.60322.28727Z"/></svg>